<?xml version="1.0" encoding="UTF-8"?>
<svg width="148px" height="62px" viewBox="0 0 148 62" version="1.1" xmlns="http://www.w3.org/2000/svg" xmlns:xlink="http://www.w3.org/1999/xlink">
    <!-- Generator: Sketch 48.2 (47327) - http://www.bohemiancoding.com/sketch -->
    <title>logo</title>
    <desc>Created with Sketch.</desc>
    <defs></defs>
    <g id="Home" stroke="none" stroke-width="1" fill="none" fill-rule="evenodd" transform="translate(-150.000000, -27.000000)">
        <g id="logo" transform="translate(150.000000, 27.000000)">
            <g id="Group-144">
                <path d="M96.6901805,48.7074929 C96.4143122,48.7830954 96.1045166,48.8613873 95.7986142,48.9390815 C96.0689206,49.1712677 96.3709297,49.3867198 96.6901805,49.5932072 L96.6901805,48.7074929 Z" id="Fill-70" fill="#222E38"></path>
                <path d="M92.0652714,50.0559929 C91.3264945,50.1790165 90.530964,50.2593236 89.6654698,50.2593236 C85.0309904,50.2593236 81.8598764,46.8515205 81.8598764,42.4400008 C81.8598764,38.0284811 85.0309904,34.620678 89.7569607,34.620678 C92.5011987,34.620678 94.6661574,35.5033236 96.0382764,36.2026543 L96.0382764,32.6432685 C95.1238565,32.1260323 92.7756714,31.0918039 89.6045574,31.0918039 C82.8966102,31.0918039 77.9874136,35.9895598 77.9874136,42.4400008 C77.9874136,48.9204654 82.8966102,53.7881976 89.5130664,53.7881976 C91.5777276,53.7881976 93.3351359,53.3864181 94.5805375,52.959985 C93.5315722,52.203048 92.6704813,51.2200795 92.0652714,50.0559929" id="Fill-72" fill="#222E38"></path>
                <path d="M43.2330506,50.3198591 L47.3494076,50.3198591 C49.5447002,50.3198591 51.0993117,49.0117567 51.0993117,46.9123 C51.0993117,44.7520638 49.6971035,43.5350087 47.7757944,43.5350087 L43.2330506,43.5350087 L43.2330506,50.3198591 Z M46.5565679,40.7967567 C47.196515,40.7967567 47.8367068,40.7667331 48.4159861,40.7057094 C49.5447002,40.3405441 50.2763828,39.3365835 50.2763828,37.8456543 C50.2763828,35.8074654 48.9042638,34.5601425 46.7393051,34.5601425 L43.2330506,34.5601425 L43.2330506,40.7967567 L46.5565679,40.7967567 Z M55.0329316,47.0951268 C55.0329316,51.0504339 51.8618175,53.3930087 47.196515,53.3930087 L39.5435696,53.3930087 L39.5435696,31.4869929 L46.4956555,31.4869929 C50.9777316,31.4869929 54.1791795,33.6472291 54.1791795,37.5717803 C54.1791795,39.549678 53.0206208,41.161922 51.4046076,41.8922528 C53.4474969,42.5920717 55.0329316,44.6610165 55.0329316,47.0951268 Z" id="Fill-74" fill="#222E38"></path>
                <path d="M63.4464013,40.7668063 C61.2506195,40.7668063 59.9396575,42.4703417 59.757165,44.3872157 L66.8917435,44.3872157 C66.922322,42.4703417 65.7331848,40.7668063 63.4464013,40.7668063 M70.4897336,44.9042079 C70.4897336,45.6040268 70.3982426,46.273578 70.3982426,46.547452 L59.757165,46.547452 C59.8484112,49.1031213 61.6777402,50.6245622 64.4828906,50.6245622 C66.6175154,50.6245622 68.8431418,49.9855228 69.8801203,49.3462394 L69.8801203,52.6017276 C68.8128079,53.1799874 66.7699187,53.7882709 64.2084179,53.7882709 C59.1470625,53.7882709 55.8844575,50.4720031 55.8844575,45.7868535 C55.8844575,41.1927512 59.2079749,37.7847039 63.5075583,37.7847039 C68.0808807,37.7847039 70.4897336,41.1317276 70.4897336,44.9042079" id="Fill-76" fill="#222E38"></path>
                <path d="M72.681846,31.4869197 L75.6408674,31.4869197 L75.6408674,48.4644236 C75.6408674,49.9853764 76.1898129,50.5633921 77.2872145,50.5633921 C77.8968278,50.5633921 78.4763517,50.4113213 78.7204906,50.3197858 L78.7204906,53.4229591 C78.4151947,53.5450063 77.5007749,53.7881244 76.2504807,53.7881244 C73.8112939,53.7881244 71.9210526,52.5408016 71.9210526,49.2552898 L71.9210526,32.2462976 C71.9210526,31.8269433 72.2615749,31.4869197 72.681846,31.4869197" id="Fill-78" fill="#222E38"></path>
                <path d="M104.797406,45.7869512 C104.797406,42.9268961 102.90692,40.9489984 100.345663,40.9489984 C97.8147412,40.9489984 95.8939213,42.9268961 95.8939213,45.7869512 C95.8939213,48.6465181 97.8147412,50.6244157 100.345663,50.6244157 C102.90692,50.6244157 104.797406,48.6465181 104.797406,45.7869512 M108.334483,45.7869512 C108.334483,50.3805654 104.980143,53.7881244 100.345663,53.7881244 C95.7410288,53.7881244 92.3570883,50.3805654 92.3570883,45.7869512 C92.3570883,41.1928488 95.7410288,37.7848016 100.345663,37.7848016 C104.980143,37.7848016 108.334483,41.1928488 108.334483,45.7869512" id="Fill-80" fill="#222E38"></path>
                <path d="M113.454696,47.1254189 C110.680124,46.2735291 108.728726,45.1172535 108.728726,42.2571984 C108.728726,39.5799701 110.984931,37.7846551 114.369605,37.7846551 C116.29067,37.7846551 117.997929,38.2718677 118.973995,38.6978126 L118.973995,41.9530567 C117.936772,41.4055528 116.412495,40.9185843 115.040131,40.8578047 C114.522009,40.8578047 114.003642,40.8880724 113.546432,40.9796079 C112.783926,41.1927024 112.143734,41.6181591 112.143734,42.4092693 C112.143734,43.3832063 113.058643,43.9001984 114.918551,44.4479465 C118.272402,45.4824189 119.888415,46.6692063 119.888415,49.3159228 C119.888415,52.1757339 117.540719,53.788222 113.972819,53.788222 C111.808594,53.788222 110.039688,53.3017417 108.881129,52.7847496 L108.881129,49.4684819 C110.344495,50.2285921 112.418207,50.8066079 113.881572,50.8066079 C115.223357,50.8066079 116.473407,50.380663 116.473407,49.2246315 C116.473407,48.1596472 115.436918,47.7341906 113.454696,47.1254189" id="Fill-82" fill="#222E38"></path>
                <path d="M122.336091,38.1804543 L122.336091,34.2937378 C122.336091,33.9200291 122.639919,33.6171079 123.014444,33.6171079 L125.934325,33.6171079 L125.934325,38.1804543 L131.697029,38.1804543 L131.697029,41.1318008 L125.934325,41.1318008 L125.934325,48.0992339 C125.934325,49.985352 126.910147,50.6243913 128.038127,50.6243913 C128.983859,50.6243913 130.020104,50.3197614 130.78212,49.985352 L130.78212,53.0887693 C130.081261,53.4536906 128.770299,53.7881 127.123462,53.7881 C124.805856,53.7881 122.488494,52.6628244 122.306001,49.3765803 C122.306001,48.8903441 122.275178,48.3726197 122.275178,47.8556276 L122.275178,41.1318008 L119.957816,41.1318008 L119.957816,38.1804543 L122.336091,38.1804543 Z" id="Fill-84" fill="#222E38"></path>
                <path d="M141.300493,46.6994496 C137.123223,46.0301425 135.354807,47.2164417 135.354807,48.9507331 C135.354807,50.1067646 136.17798,50.8978748 137.458608,50.8978748 C139.653901,50.8978748 141.300493,48.8294181 141.300493,46.6994496 Z M132.854463,38.880615 C133.708215,38.4239142 135.75086,37.7848748 138.342694,37.7848748 C142.855104,37.7848748 145.08122,39.9448669 145.08122,43.7481031 L145.08122,53.3930087 L141.696545,53.3930087 L141.635633,51.8105441 C141.605299,51.1107252 141.696545,50.6545126 141.696545,50.6545126 L141.635633,50.6545126 C141.36165,51.3238197 139.745392,53.7881976 136.63519,53.7881976 C133.921775,53.7881976 131.78715,52.1759535 131.78715,49.255363 C131.78715,45.5131504 135.476387,43.6870795 141.391739,44.5089457 L141.391739,43.9309299 C141.391739,41.7099142 139.989531,40.9488276 137.763415,40.9488276 C135.75086,40.9488276 133.829795,41.6183787 132.854463,42.2269063 L132.854463,38.880615 Z" id="Fill-86" fill="#222E38"></path>
                <polygon id="Fill-88" fill="#24A1AD" points="124.746778 61.7679882 124.746778 55.699311 126.224087 55.699311 126.224087 60.4911299 128.577654 60.4911299 128.577654 61.7679882"></polygon>
                <path d="M132.099956,57.3194638 L131.326687,59.402322 L132.855857,59.402322 L132.099956,57.3194638 Z M133.732115,61.7680858 L133.259494,60.5766606 L130.905682,60.5766606 L130.458746,61.7680858 L128.861325,61.7680858 L131.412307,55.6991646 L132.838733,55.6991646 L135.364274,61.7680858 L133.732115,61.7680858 Z" id="Fill-90" fill="#24A1AD"></path>
                <path d="M138.972,59.865052 C138.972,59.6141228 138.877329,59.4395953 138.688721,59.3422016 C138.499379,59.245052 138.247901,59.1964772 137.93282,59.1964772 L137.11674,59.1964772 L137.11674,60.5848866 L137.941137,60.5848866 C138.055868,60.5848866 138.174512,60.5751228 138.29756,60.5551071 C138.420608,60.5350913 138.532648,60.4994535 138.632701,60.4479496 C138.732754,60.3966898 138.81446,60.3237055 138.877329,60.2292409 C138.940443,60.1352646 138.972,60.0137055 138.972,59.865052 M138.77434,57.4565717 C138.77434,57.2505559 138.69557,57.100926 138.538274,57.0064614 C138.380734,56.9119969 138.147603,56.8651307 137.838149,56.8651307 L137.11674,56.8651307 L137.11674,58.1163591 L137.906889,58.1163591 C138.181607,58.1163591 138.395167,58.0604614 138.547081,57.9493984 C138.698506,57.8378472 138.77434,57.6735717 138.77434,57.4565717 M140.441236,60.0022331 C140.441236,60.3339575 140.375431,60.6124693 140.243332,60.8377685 C140.111478,61.0640441 139.937302,61.2451622 139.719828,61.3825874 C139.501864,61.5192803 139.254056,61.6178945 138.976403,61.6779417 C138.698506,61.7377449 138.413759,61.7680126 138.121428,61.7680126 L135.699365,61.7680126 L135.699365,55.6993354 L138.121428,55.6993354 C138.356271,55.6993354 138.596985,55.7237449 138.84357,55.7720756 C139.089421,55.8206504 139.312767,55.9036425 139.513117,56.0205638 C139.713468,56.137485 139.877124,56.2963906 140.003107,56.4960598 C140.128846,56.6967055 140.191716,56.9505638 140.191716,57.2593433 C140.191716,57.5964378 140.100225,57.8751937 139.917243,58.0951228 C139.733527,58.315052 139.493058,58.4737134 139.195345,58.570863 L139.195345,58.5881937 C139.367319,58.6165087 139.529018,58.6694772 139.680932,58.746611 C139.832602,58.8237449 139.964456,58.9223591 140.076251,59.0424535 C140.187557,59.1623039 140.276602,59.3021701 140.342407,59.4625402 C140.407967,59.622422 140.441236,59.8023197 140.441236,60.0022331" id="Fill-92" fill="#24A1AD"></path>
                <path d="M144.280943,57.276552 C144.155205,57.1166701 143.990325,56.9890087 143.786795,56.8947882 C143.583753,56.8008118 143.387562,56.7532134 143.198709,56.7532134 C143.101591,56.7532134 143.002517,56.7622449 142.902464,56.7795756 C142.802167,56.796174 142.711899,56.8291268 142.631661,56.8779457 C142.551423,56.9262764 142.484395,56.9890087 142.429843,57.0663866 C142.375291,57.1435205 142.348381,57.2421346 142.348381,57.3622291 C142.348381,57.4647488 142.369909,57.550426 142.412474,57.6192606 C142.455529,57.6878512 142.518398,57.7476543 142.601816,57.7994024 C142.684745,57.8511504 142.783575,57.8980165 142.898305,57.9407331 C143.012302,57.9834496 143.141466,58.0281189 143.284573,58.0737646 C143.490795,58.142111 143.705334,58.2177803 143.928924,58.3005283 C144.152514,58.3837646 144.3558,58.4936071 144.538781,58.6307882 C144.722008,58.7679693 144.873922,58.9383472 144.994034,59.1409457 C145.114391,59.3437882 145.174325,59.5966701 145.174325,59.8993472 C145.174325,60.2479142 145.110233,60.549615 144.981069,60.8034732 C144.852395,61.0578197 144.679198,61.2682291 144.461234,61.4337252 C144.24376,61.5997094 143.994973,61.722489 143.714385,61.802552 C143.433307,61.8823709 143.144401,61.9224024 142.846444,61.9224024 C142.411006,61.9224024 141.990491,61.8467331 141.583429,61.6951504 C141.177102,61.5438118 140.839271,61.3282764 140.569691,61.0480559 L141.532302,60.0704575 C141.680791,60.2537724 141.876983,60.4063315 142.120388,60.5295992 C142.364038,60.6523787 142.605975,60.7136465 142.846444,60.7136465 C142.955059,60.7136465 143.061472,60.702174 143.164461,60.6792291 C143.267205,60.6567724 143.357962,60.6191819 143.43502,60.5681661 C143.511833,60.5164181 143.573479,60.4478276 143.619714,60.3623945 C143.665215,60.2767173 143.68821,60.1737094 143.68821,60.0538591 C143.68821,59.9393787 143.659833,59.8422291 143.60259,59.7624102 C143.545102,59.6821031 143.463396,59.609363 143.357962,59.5437016 C143.251548,59.4782843 143.120183,59.4179929 142.962398,59.3638039 C142.805102,59.3093709 142.626034,59.2507882 142.425684,59.1878118 C142.230715,59.1250795 142.04015,59.0508748 141.854233,58.9651976 C141.668071,58.8790323 141.501968,58.7694339 141.355925,58.6349378 C141.210127,58.501174 141.092705,58.3378748 141.003661,58.1462606 C140.915105,57.9551346 140.870828,57.7220244 140.870828,57.4476622 C140.870828,57.1105677 140.939324,56.8222921 141.076805,56.5821031 C141.214286,56.3424024 141.394577,56.1449299 141.617922,55.9906622 C141.841023,55.8363945 142.093479,55.7238669 142.373823,55.6521031 C142.654656,55.5805835 142.937935,55.5447016 143.224639,55.5447016 C143.567853,55.5447016 143.919139,55.607922 144.276785,55.7336307 C144.634676,55.8590953 144.948044,56.0450953 145.21738,56.2906543 L144.280943,57.276552 Z" id="Fill-94" fill="#24A1AD"></path>
                <path d="M147.539708,38.5437402 L147.477572,37.5532047 C147.471701,37.4233465 147.471701,37.262 147.465585,37.0825906 L147.446994,37.0825906 C147.40345,37.2314882 147.353546,37.4296929 147.304376,37.5842047 L147.000058,38.5190866 L146.652686,38.5190866 L146.348369,37.5593071 C146.31779,37.4296929 146.267886,37.2314882 146.230947,37.0825906 L146.212356,37.0825906 C146.212356,37.2373465 146.205751,37.3984488 146.199635,37.5532047 L146.137744,38.5437402 L145.81508,38.5437402 L145.939106,36.8599764 L146.441572,36.8599764 L146.733414,37.6835512 C146.770597,37.8131654 146.80142,37.9374094 146.845209,38.1104724 L146.851324,38.1104724 C146.894623,37.9554724 146.932052,37.8131654 146.969235,37.6894094 L147.260342,36.8599764 L147.744706,36.8599764 L147.874848,38.5437402 L147.539708,38.5437402 Z M145.716005,36.8599764 L145.716005,37.1382441 L145.175866,37.1382441 L145.175866,38.5437402 L144.841215,38.5437402 L144.841215,37.1382441 L144.301076,37.1382441 L144.301076,36.8599764 L145.716005,36.8599764 Z" id="Fill-96" fill="#222E38"></path>
                <path d="M20.571046,8.71390472 C21.2185765,8.99607795 21.8634162,9.28508583 22.5045864,9.58166063 C22.5195088,9.58849528 22.5339418,9.59899134 22.5478856,9.61241654 C22.5618294,9.62535354 22.5745501,9.64121969 22.5860476,9.6580622 C22.5975451,9.67514882 22.6073302,9.69321181 22.6149137,9.71103071 C22.6224972,9.7290937 22.6273898,9.7469126 22.6293468,9.76351102 C22.708117,10.4521016 22.7756344,11.1419126 22.8492674,11.8312354 C22.8592972,11.9278969 22.8424179,11.9938024 22.7538625,12.0562906 C22.1909732,12.4534323 21.6322426,12.8566764 21.0757137,13.2626055 C20.9871583,13.3270465 20.9157269,13.3348575 20.8159187,13.2892118 C20.1950526,13.0058181 19.572474,12.7263299 18.9474493,12.4517236 C18.8434823,12.4058339 18.7916212,12.3531094 18.7803683,12.2325268 C18.7162757,11.5483299 18.6392179,10.8653535 18.5765931,10.1811567 C18.5702327,10.1150071 18.6120641,10.0161488 18.6646592,9.97782598 C19.0034691,9.73129055 19.3515749,9.49744803 19.6965005,9.25945591 L20.3626228,8.73929055 C20.4171749,8.70487323 20.5147815,8.68925118 20.571046,8.71390472 M19.8469468,8.64921969 C19.3459484,9.0117 18.8478856,9.37808583 18.3385699,9.72836142 C18.1910592,9.82990472 18.1585236,9.93462126 18.1771154,10.1037787 C18.2695848,10.9478575 18.3490889,11.7936449 18.4329964,12.6387 C18.4408245,12.6499283 18.4486526,12.6614008 18.456236,12.6726291 C18.5139683,12.6887394 18.574636,12.6982591 18.6286988,12.7224244 C19.3620939,13.049511 20.0964674,13.3746449 20.8257038,13.7105189 C20.951198,13.7683693 21.0348608,13.7547 21.141274,13.6778102 C21.8081302,13.1935268 22.4811021,12.7172984 23.1447782,12.2291094 C23.2047121,12.1856606 23.2482559,12.0726449 23.2426294,11.9959992 C23.2103385,11.5727394 23.1572542,11.1509441 23.1178691,10.7281724 C23.0762823,10.2812354 23.0417898,9.83332205 23.0038724,9.38589685 C22.9962889,9.3746685 22.9884608,9.36319606 22.9806327,9.35196772 C22.6183385,9.19672362 22.253598,9.04636142 21.8942393,8.88428268 C21.4042493,8.66313307 20.9184179,8.43295197 20.430874,8.20643228 L19.9893203,8.5110622 C19.9421071,8.55719606 19.9000311,8.61065276 19.8469468,8.64921969" id="Fill-98" fill="#222E38"></path>
                <path d="M20.9095623,13.1176134 L18.8862433,12.0062512 C18.8955392,11.9835504 18.9459326,11.917889 18.9549838,11.8947 C19.6291788,12.2657236 20.2657012,12.6159992 20.9398962,12.9870228 C20.9310896,13.0097236 20.9183689,13.0949126 20.9095623,13.1176134" id="Fill-100" fill="#222E38"></path>
                <path d="M20.6804436,9.06859843 C20.0891775,9.49796063 19.4979114,9.92756693 18.9066453,10.3569291 C18.8721527,10.3095748 18.8376602,10.2622205 18.802923,10.2148661 C19.3941891,9.78550394 19.9852106,9.35589764 20.5764767,8.92629134 L20.6804436,9.06859843 Z" id="Fill-102" fill="#222E38"></path>
                <path d="M22.844844,12.0520921 C22.6721258,11.2885646 22.4994076,10.5247929 22.3260813,9.76126535 C22.4106159,9.74881654 22.4951505,9.73661181 22.5790769,9.7239189 C22.7530114,10.488911 23.0437131,11.2009346 23.2176476,11.9656827 C23.1325048,11.976911 22.9299867,12.0408638 22.844844,12.0520921" id="Fill-104" fill="#222E38"></path>
                <path d="M20.4453805,0.921237008 C20.9544516,0.620268504 21.4669474,0.32418189 21.9826235,0.0344417323 C21.9943656,0.0278511811 22.0090433,0.0232133858 22.0246995,0.020284252 C22.0403557,0.0173551181 22.0574797,0.0161346457 22.0746036,0.0166228346 C22.091483,0.0171110236 22.1088516,0.0195519685 22.1247524,0.0229692913 C22.1406532,0.0268748031 22.1553309,0.0322448819 22.1675623,0.0390795276 C22.674921,0.322473228 23.1778764,0.614410236 23.683278,0.901953543 C23.7542202,0.942229134 23.7909144,0.985922047 23.7901805,1.0767252 C23.7850433,1.65254409 23.7862664,2.22860709 23.7904251,2.80491417 C23.791159,2.8966937 23.761559,2.94868583 23.6815656,2.9940874 C23.1844813,3.27626063 22.6895987,3.56185118 22.1966731,3.85110315 C22.114478,3.89943386 22.053321,3.90895354 21.9654995,3.85744961 C21.4684152,3.56600079 20.9654598,3.28407165 20.4686202,2.99164646 C20.4204284,2.96357559 20.3737045,2.88692992 20.3732152,2.83249685 C20.3712582,2.48222126 20.3822664,2.13170157 20.389116,1.78118189 L20.3607392,1.07477244 C20.3639193,1.02107165 20.4011028,0.947355118 20.4453805,0.921237008 M20.6459755,1.54855984 C20.6471987,1.91250472 20.6513574,2.27620551 20.6440185,2.6399063 C20.6418169,2.74511102 20.6807127,2.79685906 20.768045,2.84616614 C21.2047061,3.09270157 21.6372086,3.34607165 22.0711788,3.59700079 C22.0792516,3.59700079 22.0873243,3.59724488 22.095397,3.59748898 C22.12304,3.57552047 22.1484813,3.54989055 22.1785706,3.53231575 C22.5878334,3.29505591 22.9966069,3.05657559 23.4085607,2.82419764 C23.4795028,2.78441024 23.5020086,2.73949685 23.5015193,2.66260709 C23.4988284,2.17734724 23.5027425,1.69257559 23.4976053,1.20755984 C23.497116,1.16411102 23.4577309,1.10430787 23.4190797,1.08063071 C23.2052747,0.950284252 22.9851094,0.830433858 22.7688582,0.703504724 C22.5401309,0.569740945 22.3136053,0.431827559 22.0861012,0.295622835 C22.0780284,0.295622835 22.0702003,0.295622835 22.061883,0.29537874 C21.8627557,0.414740945 21.6650962,0.537032283 21.4637673,0.652488976 C21.1890499,0.810174016 20.911397,0.962733071 20.6349673,1.11748898 C20.6330102,1.22244961 20.6310532,1.32789843 20.6288516,1.43310315 C20.6347226,1.47142598 20.6457309,1.50999291 20.6459755,1.54855984" id="Fill-106" fill="#222E38"></path>
                <path d="M23.4232139,2.64825433 C22.9160998,2.92774252 22.4694089,3.18306535 21.9622949,3.46255354 C21.9525098,3.44497874 21.8656668,3.40641181 21.8558817,3.3890811 C22.3629957,3.1100811 22.8984866,2.81497087 23.4058453,2.53597087 C23.4153858,2.55305748 23.4136734,2.63116772 23.4232139,2.64825433" id="Fill-108" fill="#222E38"></path>
                <path d="M21.4277141,1.15197953 C21.3911599,1.66945984 21.4089912,2.17912913 21.372437,2.69636535 C21.3349912,2.69612126 20.8856418,2.69490079 20.8473045,2.69490079 C20.8838587,2.17742047 20.9204129,1.65994016 20.9569671,1.14270394 C20.9944129,1.14270394 21.3902683,1.15197953 21.4277141,1.15197953" id="Fill-110" fill="#222E38"></path>
                <path d="M23.2910902,1.41552137 C22.8664159,1.15577592 22.4241283,0.861127964 21.9994539,0.600876679 C22.0094836,0.583425427 22.0410407,0.547258339 22.051315,0.529807087 C22.4769679,0.790058372 22.9026208,1.05030966 23.3282737,1.31030802 C23.3170208,1.32750636 23.3020985,1.39832304 23.2910902,1.41552137" id="Fill-112" fill="#222E38"></path>
                <path d="M19.8519617,28.0364732 C19.0405302,28.5375992 18.2239617,29.030426 17.4012774,29.5137331 C17.382441,29.5247173 17.359446,29.5327724 17.3342493,29.5378984 C17.3088079,29.5430244 17.2814096,29.5457094 17.2537666,29.5452213 C17.2263683,29.5449772 17.198236,29.5418039 17.1725501,29.5364339 C17.1466195,29.5308197 17.1231352,29.5225205 17.1033203,29.5120244 C16.2762327,29.0707016 15.4562393,28.6157094 14.6328212,28.1680402 C14.5168674,28.1050638 14.4566889,28.035985 14.4552212,27.8895283 C14.4449468,26.9607488 14.4253765,26.0319693 14.4006691,25.1034339 C14.396755,24.9557567 14.4432344,24.8708118 14.5706856,24.7951425 C15.3627914,24.3245283 16.1519617,23.8487882 16.9374625,23.3671898 C17.0683385,23.2871268 17.1669236,23.2697961 17.3100311,23.3501031 C18.1207286,23.8046071 18.9399881,24.243489 19.7501964,24.6992134 C19.8282327,24.7431504 19.9065137,24.8654417 19.9087154,24.9530717 C19.9229038,25.5179063 19.9160542,26.0832291 19.9160542,26.6483079 L19.9835716,27.7862764 C19.9803914,27.8729299 19.9226592,27.9927803 19.8519617,28.0364732 M20.462798,27.279048 C20.443717,26.4501031 20.4185203,25.6209142 20.4194988,24.7917252 C20.4197435,24.5520244 20.3284972,24.4358354 20.1271683,24.3272134 C19.1217468,23.7843472 18.1246426,23.2261031 17.1248476,22.6732291 L17.069317,22.6732291 C17.0074261,22.7242449 16.950917,22.7838039 16.8829104,22.8248118 C15.9606625,23.3837882 15.0393931,23.9452055 14.1102955,24.4927094 C13.950798,24.5866858 13.9016278,24.6896937 13.9057864,24.8656858 C13.9331848,25.9707016 13.9459055,27.0759614 13.9794195,28.1812213 C13.982355,28.2800795 14.0740906,28.4148197 14.1631352,28.4668118 C14.6565501,28.7545992 15.1639088,29.0182213 15.6622162,29.2977094 C16.1891451,29.5930638 16.7114261,29.8969614 17.2359088,30.1974417 L17.2911947,30.1974417 C17.7400873,29.916489 18.1848212,29.6289457 18.6386063,29.3567803 C19.25776,28.9855126 19.8840079,28.6257173 20.5070757,28.2610402 L20.5070757,27.5419378 C20.4914195,27.4540638 20.464755,27.366922 20.462798,27.279048" id="Fill-114" fill="#222E38"></path>
                <path d="M14.5668939,25.1082913 C15.4267617,24.6127795 16.2631451,24.0755276 17.1227683,23.5800157 C17.1401369,23.6095512 17.1809898,23.6810709 17.1983583,23.7108504 C16.3380013,24.205874 15.5307286,24.730189 14.6706162,25.2252126 C14.6534922,25.1959213 14.5837732,25.1373386 14.5668939,25.1082913" id="Fill-116" fill="#222E38"></path>
                <path d="M19.5396143,27.8250386 C19.5396143,26.7810465 19.4861203,25.9225661 19.4861203,24.878574 C19.5520962,24.878574 19.9131806,24.8627079 19.9773733,24.8627079 L19.9773733,27.8189362 C19.9131806,27.8189362 19.6038071,27.8250386 19.5396143,27.8250386" id="Fill-118" fill="#222E38"></path>
                <path d="M14.8191788,27.8517181 C15.6582532,28.3384425 16.4953706,28.7819622 17.3342003,29.2686866 C17.3148747,29.3031039 17.270597,29.4180724 17.2510268,29.4527339 C16.4104846,28.9652772 15.5699425,28.4775764 14.7294003,27.9903638 C14.7504383,27.9566787 14.7983855,27.8856472 14.8191788,27.8517181" id="Fill-120" fill="#222E38"></path>
                <path d="M35.3966096,39.5458457 C35.0056939,28.5864913 22.8865732,24.7510346 22.8865732,24.7510346 C22.8865732,24.7510346 22.8770327,25.3249008 22.8618658,25.4991843 C23.6791683,25.4596409 24.4629567,26.0532787 24.6102228,26.8719717 C24.7677633,27.746074 24.1429831,28.6509323 23.2691716,28.8144756 C23.0191617,28.8613417 22.7689071,28.8396173 22.5316179,28.7722472 C22.488074,29.1120268 22.4494228,29.3480661 22.4232476,29.3744283 C30.7680013,31.0318299 31.2261898,39.5458457 31.2261898,39.5458457 L31.2261898,50.050452 C31.2261898,50.050452 24.509436,49.8197827 21.9628575,49.0128063 C11.3085699,45.1995622 11.8602063,30.8680425 11.8602063,30.8680425 L11.8602063,1.24351496 C11.8602063,0.700892913 11.4191418,0.26127874 10.8755782,0.26127874 L7.11050711,0.26127874 C7.11050711,0.26127874 7.34216992,31.2146567 7.22646083,31.3303575 C7.25263603,58.2547118 35.3966096,53.5168378 35.3966096,53.5168378 C35.3966096,53.5168378 35.6774426,47.4291213 35.3966096,39.5458457" id="Fill-122" fill="#24A1AD"></path>
                <path d="M21.2937018,18.7978142 C21.1046043,17.7545543 20.1229117,17.0852472 19.066363,17.2788142 C18.0125051,17.4718929 17.3478506,18.4392394 17.5423299,19.4966567 C17.7348522,20.5450425 18.7123861,21.2148378 19.7674671,21.021515 C20.8117845,20.8299008 21.4845117,19.8501055 21.2937018,18.7978142" id="Fill-124" fill="#C2E4E3"></path>
                <path d="M16.9023339,5.03771969 C17.0111934,5.67968819 17.6259438,6.12491654 18.2629554,6.02361732 C18.9087736,5.92109764 19.3723438,5.28205827 19.2661752,4.64057795 C19.1629421,4.01545197 18.525686,3.55753071 17.8967471,3.65687717 C17.2411438,3.76061732 16.7912727,4.38476693 16.9023339,5.03771969" id="Fill-126" fill="#C2E4E3"></path>
                <path d="M18.0237091,33.2003409 C17.9082446,32.580585 17.3118413,32.1575693 16.7036959,32.2647268 C16.0546975,32.378963 15.6314909,32.9918843 15.7572298,33.6348291 C15.8773421,34.2450654 16.4813289,34.6592937 17.0928992,34.5501835 C17.717924,34.4391205 18.1401521,33.8264433 18.0237091,33.2003409" id="Fill-128" fill="#C2E4E3"></path>
                <path d="M23.8137871,53.7865378 C23.5875061,54.0984906 23.8086499,55.6018685 23.8086499,55.6018685 C23.8086499,55.6018685 18.293754,54.4026323 14.5450731,52.7134984 C3.62487471,48.548026 4.44242182,35.4940969 4.44242182,35.4940969 L4.44242182,1.24349055 C4.44242182,0.701112598 4.00160198,0.261254331 3.45779372,0.261254331 L0.156537521,0.261254331 C0.156537521,0.261254331 0.388200331,34.9153488 0.272246612,35.0310496 C0.298666446,61.9554039 27.9788251,60.9184906 27.9788251,60.9184906 C27.9788251,60.9184906 28.1339193,57.8485142 28.2241871,54.2703331 C28.2241871,54.2703331 25.7876912,54.2141913 23.8137871,53.7865378" id="Fill-130" fill="#C2E4E3"></path>
                <path d="M23.8087722,46.4846709 L23.7916483,48.7862378 L28.4461871,49.3569307 C28.4329772,46.7031354 28.1898169,43.7813244 27.9789474,41.3960331 C27.283959,33.5383874 20.5686731,31.6901039 20.5686731,31.6901039 C20.5686731,31.6901039 20.2208119,35.2724346 20.1051028,35.3881354 C24.7603755,40.2998047 23.8087722,46.4846709 23.8087722,46.4846709" id="Fill-132" fill="#C2E4E3"></path>
                <path d="M21.775081,27.3723654 C21.8861421,28.0074992 22.5432132,28.4610268 23.1792463,28.3419087 C23.8028033,28.2252315 24.2482711,27.5798457 24.1359868,26.9561843 C24.0229686,26.3288614 23.3866909,25.8797276 22.7592198,25.9844441 C22.1041058,26.0940425 21.660595,26.7189244 21.775081,27.3723654" id="Fill-134" fill="#C2E4E3"></path>
                <path d="M24.0505382,21.5338693 C23.6813944,21.3561685 23.3142076,21.1748063 22.9494671,20.9892945 C22.9411498,20.9849008 22.9328324,20.9785543 22.9250043,20.9704992 C22.9174208,20.9626882 22.9103266,20.9531685 22.9039663,20.9431606 C22.897606,20.9331528 22.8924688,20.9224126 22.8883101,20.9116724 C22.884396,20.9011764 22.8819498,20.8906803 22.8812159,20.8811606 C22.8506374,20.4806016 22.8266638,20.0795543 22.7992655,19.6785071 C22.7953514,19.6223654 22.8066043,19.5847748 22.859444,19.5503575 C23.1940952,19.3323811 23.5263002,19.1112315 23.8577712,18.8881291 C23.9103663,18.8527354 23.9519531,18.8498063 24.0087068,18.8783654 C24.3621944,19.0563102 24.7169051,19.231326 25.072839,19.4041449 C25.132039,19.4331921 25.1609051,19.4646803 25.1648192,19.5349795 C25.1870803,19.9323654 25.2166803,20.3297512 25.237963,20.7273811 C25.23992,20.765948 25.2137448,20.8223339 25.1824324,20.843326 C24.9808588,20.9787984 24.7741481,21.1067039 24.5689051,21.2368063 L24.1716291,21.5238614 C24.1393382,21.5426567 24.0825845,21.5492472 24.0505382,21.5338693 M24.3105779,21.0986488 C24.5033448,20.9697669 24.6951332,20.8399087 24.8908357,20.7156646 C24.9471002,20.6800268 24.961044,20.6412157 24.956396,20.5775071 C24.9336456,20.2601843 24.9160324,19.9423732 24.8964621,19.6250504 C24.8935266,19.6206567 24.8910803,19.616263 24.8881448,19.6118693 C24.8668621,19.6050346 24.8443564,19.6006409 24.8242969,19.5908772 C24.5544721,19.4580898 24.284158,19.3260346 24.0155564,19.1898299 C23.9695663,19.1666409 23.9380093,19.1703024 23.8971564,19.197885 C23.6405415,19.3697276 23.3822142,19.5383969 23.1265779,19.7117039 C23.1035828,19.7275701 23.085725,19.7690661 23.0867035,19.7978693 C23.0928192,19.9567748 23.106763,20.1151921 23.1155696,20.2743417 C23.1246208,20.4420346 23.1312258,20.6104598 23.1390539,20.7783969 C23.1417448,20.7827906 23.1446803,20.7869402 23.1473712,20.7913339 C23.2809382,20.8547984 23.415239,20.9160661 23.5473382,20.9817276 C23.7278737,21.0713102 23.9064522,21.1645543 24.0860093,21.2560898 C24.1422737,21.2202079 24.1987828,21.184326 24.2552919,21.1484441 C24.273639,21.1318457 24.2900291,21.112074 24.3105779,21.0986488" id="Fill-136" fill="#222E38"></path>
                <path d="M23.8809375,19.2595433 C24.2077607,19.5282345 24.5345838,19.7973122 24.8611623,20.0660034 C24.8552912,20.0837872 24.8374334,20.1274737 24.8315623,20.1452576 C24.5049838,19.8761798 24.2128979,19.6310716 23.8863193,19.3619939 C23.8921904,19.34421 23.8753111,19.2773272 23.8809375,19.2595433" id="Fill-138" fill="#222E38"></path>
                <path d="M23.9877177,21.2551265 C24.5381459,20.7461076 24.1271628,21.1107089 24.7743938,20.5124071 C24.7780699,20.5205884 24.875853,20.5956429 24.879284,20.6038242 C24.5930417,20.8684713 24.3065543,21.1334742 24.020067,21.3981214 C24.0163909,21.3899401 23.9913937,21.2629521 23.9877177,21.2551265" id="Fill-140" fill="#222E38"></path>
                <path d="M23.4457948,19.783248 C23.5046382,20.0959331 23.6196502,20.4266811 23.6802768,20.7393661 C23.6339153,20.7398543 23.4021081,20.7574291 23.3557466,20.7579173 L23.1756502,19.8183976 C23.2220117,19.8181535 23.3477225,19.7976496 23.4457948,19.783248" id="Fill-142" fill="#222E38"></path>
            </g>
        </g>
    </g>
</svg>